<svg xmlns="http://www.w3.org/2000/svg" viewBox="0 0 69.42 64.29"><title>Recurso 294MODERN ICON</title><g id="Capa_2" data-name="Capa 2"><g id="Capa_1-2" data-name="Capa 1"><path d="M34.84,64.29a34.15,34.15,0,0,1-15.9-3.75c-1.07-.55-1.1-.6-.48-1.65q5.31-9.06,10.65-18.1c.67-1.14.68-1.13,2-.67A10.56,10.56,0,0,0,38.61,40c.32-.12.65-.24,1-.38a.61.61,0,0,1,.88.26c.21.33.43.66.63,1q5.28,8.82,10.55,17.65c.59,1,.56,1.12-.66,1.74A33.91,33.91,0,0,1,34.84,64.29Z"/><path d="M11.81,28.27H2.05c-.35,0-.7,0-1,0-1-.06-1.1-.13-1-1.19A52.55,52.55,0,0,1,1.1,20.66,34.2,34.2,0,0,1,15.48.53c1.09-.74,1.11-.77,1.77.33,2.06,3.42,4.09,6.86,6.14,10.29Q25.69,15,28,18.91c.66,1.11.67,1.11-.3,1.9a11,11,0,0,0-3.92,6.28c-.26,1.15-.27,1.18-1.45,1.18-3.5,0-7,0-10.51,0Z"/><path d="M53.16,0c.88.6,1.71,1.11,2.48,1.71a34.26,34.26,0,0,1,13.21,21.2,31.93,31.93,0,0,1,.52,3.51c.15,1.82.11,1.82-1.66,1.82H54.55c-2.47,0-4.93,0-7.4,0-1.18,0-1.2,0-1.47-1.15a11.1,11.1,0,0,0-3.79-6.19,1,1,0,0,1-.25-1.48c1.72-2.88,3.39-5.78,5.09-8.67Q49.54,6,52.35,1.23C52.57.85,52.84.51,53.16,0Z"/><path d="M34.64,35.91a6.38,6.38,0,1,1,6.48-6.45A6.32,6.32,0,0,1,34.64,35.91Z"/></g></g></svg>